PathFileType	4	(X/Y/Z)	C:\Users\WrightLab\Desktop\Jo\P1_boxCal27.trc
DataRate	CameraRate	NumFrames	NumMarkers	Units	OrigDataRate	OrigDataStartFrame	OrigNumFrames
100.00	100.00	       10	19	mm	100.00	1	       465
Frame#	Time	Headset_Front			Headset_Back			Headset_Left			Headset_Right			Left_Shoulder			Right_Shoulder			Sternum			C7			Left Elbow			Right Elbow			Left Wrist			Right Wrist			Left ASIS			Right ASIS			S2			Left Knee			Right Knee			Left Ankle			Right Ankle			
		X1	Y1	Z1	X2	Y2	Z2	X3	Y3	Z3	X4	Y4	Z4	X5	Y5	Z5	X6	Y6	Z6	X7	Y7	Z7	X8	Y8	Z8	X9	Y9	Z9	X10	Y10	Z10	X11	Y11	Z11	X12	Y12	Z12	X13	Y13	Z13	X14	Y14	Z14	X15	Y15	Z15	X16	Y16	Z16	X17	Y17	Z17	X18	Y18	Z18	X19	Y19	Z19	

1	0.000	-668.95111	1407.92676	-897.28015				-446.01871	1429.66821	-930.17407	-579.28162	1370.39526	-779.73029	-348.01413	1269.02856	-1003.39185	-726.41827	1233.77576	-1026.29663	-557.44763	1140.58142	-896.29846	-519.63940	1265.64868	-1125.32715	-245.46318	958.39429	-1048.83313	-795.83344	964.70862	-1097.36267	-179.46492	773.31586	-939.55438	-865.01978	737.03156	-1031.98865	-452.25879	867.43262	-857.51849	-644.06244	856.82782	-924.30579	-461.28000	883.59192	-1195.22449	-327.60068	461.21313	-855.91345	-658.80615	419.49777	-1061.74377	-286.47437	159.88654	-1054.02466				
2	0.010	-672.55328	1408.35327	-889.78052	-539.06042	1490.45886	-1051.44324	-450.06021	1430.30627	-923.16510	-583.96368	1370.86304	-774.41858	-351.75348	1269.52991	-996.36401	-730.26392	1233.89185	-1020.06769				-523.34631	1265.69141	-1118.48657	-249.35568	959.17230	-1040.56812	-799.24036	964.56323	-1090.43042	-183.44720	773.70612	-932.17902	-868.19873	736.87061	-1019.76392	-457.25345	868.02698	-851.29132	-648.25977	857.79321	-918.01129	-462.73251	883.36487	-1187.23694	-336.04501	462.76428	-844.91016	-660.10284	420.50687	-1060.43713	-294.05090	151.70648	-1030.73120				
3	0.020	-676.77716	1409.18872	-883.72461	-542.85712	1490.52026	-1044.77991	-453.80063	1430.20691	-914.49133	-587.60645	1371.22986	-766.68610	-355.46466	1269.99683	-990.15381	-733.85779	1234.03784	-1013.44330	-566.35931	1140.57056	-882.34784	-526.95691	1265.69324	-1111.51367	-253.11736	959.65167	-1033.47974	-802.61755	964.14185	-1082.67578	-187.36903	773.72815	-925.47668	-870.56171	737.13763	-1008.59113	-462.52316	868.23492	-844.69788	-653.70172	858.46460	-911.80957	-464.10245	884.08374	-1181.23657	-344.27393	464.11395	-834.81696	-661.92517	419.70578	-1055.90845	-302.02634	142.56958	-1003.57056				
4	0.030	-680.22083	1409.60034	-877.11780	-546.52319	1490.38281	-1037.26611	-457.95868	1431.12244	-909.79700	-591.82208	1372.26392	-759.54041	-358.64087	1269.88831	-982.69739	-737.14783	1233.66614	-1006.78107				-530.33337	1265.73230	-1103.90723	-255.27419	959.33740	-1026.76135	-805.68854	963.56543	-1074.69678	-191.34030	773.98181	-918.70355	-873.95227	736.26746	-996.80835	-466.90463	868.76404	-836.27802	-657.63477	859.25928	-906.40015	-465.42520	884.00073	-1173.45300	-351.70715	466.18039	-823.59900	-663.63776	419.18069	-1052.14563	-310.65005	134.44795	-978.34882				
5	0.040	-684.09131	1409.55542	-869.62451	-549.95868	1490.59302	-1031.50208	-461.52640	1431.77515	-904.36530	-596.19366	1373.23083	-753.27667	-362.44168	1269.99109	-973.54797	-740.91498	1233.61536	-1000.11481				-533.76697	1265.66589	-1097.16223	-260.16351	959.14410	-1018.81488	-809.16083	962.41125	-1066.70764	-195.00546	773.03229	-911.60474	-875.09161	735.08484	-985.41107	-470.43680	868.65381	-827.75500	-661.69562	858.34747	-899.71918	-466.66202	884.36792	-1165.53699	-360.50128	467.17355	-813.57233	-665.27692	418.88739	-1048.65466	-319.57956	127.51826	-953.64270				
6	0.050	-687.67346	1410.32629	-863.18158	-553.37061	1490.29236	-1024.25415	-464.28928	1431.33069	-895.86548	-599.48322	1373.85046	-745.81708	-366.34500	1270.01196	-967.43958	-745.00079	1233.23181	-993.12927				-537.05475	1265.24500	-1089.19617	-263.68390	960.02380	-1013.38141	-811.85944	962.13593	-1058.82751	-198.43816	773.32349	-905.40955	-874.73486	734.26227	-974.37909	-476.15619	868.68988	-824.17413	-665.65216	858.53790	-893.72852	-468.10004	884.36694	-1157.89636	-367.68466	467.76437	-804.46912	-665.94769	420.53510	-1050.68433	-328.84213	119.48365	-927.36755				
7	0.060	-690.90686	1410.21118	-856.15106	-556.56390	1489.93262	-1017.38940	-467.79282	1431.31262	-887.71210	-602.89630	1374.30957	-738.57416	-369.51959	1269.76392	-959.05530	-748.13818	1233.15039	-985.96729				-540.20752	1264.95898	-1081.36438	-267.32858	959.23981	-1005.20471	-815.42310	961.91058	-1051.04260	-202.33362	772.54108	-898.16357	-877.61304	734.11035	-963.88605	-480.27325	867.75177	-819.27625	-669.07043	857.65430	-887.76001	-469.30453	885.11444	-1150.54138	-375.91113	469.00961	-795.18176	-666.67218	419.91760	-1046.12451	-338.05313	113.61797	-901.37091				
8	0.070	-694.33154	1410.35828	-848.99463	-559.76080	1489.24585	-1010.57703	-471.50345	1431.19373	-879.94312	-607.22626	1375.17432	-731.41852	-373.17014	1269.49341	-950.67383	-750.82813	1231.79712	-978.64874				-543.29242	1264.77844	-1074.26038	-271.06424	958.92371	-997.04974	-817.61414	960.39966	-1042.64612	-206.36018	772.05939	-891.35516	-878.31586	733.41809	-953.65906	-482.33685	868.33704	-806.71033	-672.95544	857.42517	-881.44415	-470.81784	884.88928	-1142.24158	-383.13080	468.50043	-785.64789	-667.34906	419.63754	-1043.36292	-346.05896	107.17766	-876.37347				
9	0.080	-697.75647	1410.82275	-842.25092	-562.81415	1488.61414	-1003.83575	-474.94009	1431.17932	-874.56024	-610.39929	1375.92981	-723.98138	-375.96967	1268.74243	-941.82819	-754.05859	1231.50928	-970.96014				-546.35602	1264.34021	-1066.55164	-274.55008	958.07800	-988.87744	-820.21002	959.64301	-1034.61414	-209.70889	771.04449	-884.08362	-879.41827	732.52209	-942.82056	-485.60706	867.71271	-800.27521	-675.91632	857.20203	-875.22583	-472.24039	885.71753	-1135.15930	-390.82510	469.79456	-777.92010	-668.29474	419.73157	-1040.48181	-357.29352	102.08920	-849.26923				
10	0.090	-700.89532	1410.66504	-834.81042	-565.76270	1487.79089	-996.81750	-477.96371	1429.66528	-860.85388	-612.85181	1375.58337	-716.72913	-379.36340	1267.48987	-930.61273	-757.58997	1230.70642	-963.49872				-549.36139	1263.52991	-1058.09253	-277.93649	958.11731	-982.16608	-823.13318	958.40765	-1026.05615	-213.01131	770.45380	-877.71698	-881.00427	731.54724	-932.64575	-490.23944	866.50269	-792.83997	-678.71753	856.26044	-868.85175	-473.91998	886.01324	-1128.27148	-397.63022	469.22067	-769.30719	-668.98444	417.22418	-1034.18530	-368.17398	94.85001	-821.16779				
